<?xml version="1.0" encoding="utf-8"?>
<!-- Generator: Adobe Illustrator 24.1.2, SVG Export Plug-In . SVG Version: 6.00 Build 0)  -->
<svg version="1.1" id="Layer_1" xmlns="http://www.w3.org/2000/svg" xmlns:xlink="http://www.w3.org/1999/xlink" x="0px" y="0px"
	 viewBox="0 0 298.3 330.5" style="enable-background:new 0 0 298.3 330.5;" xml:space="preserve">
<style type="text/css">
	.st0{fill:#FFFFFF;}
</style>
<polygon class="st0" points="59,54 252,54 252,274 54,274 54,54 "/>
<path d="M298.2,165.8c0,40.5-0.2,81,0.1,121.6c0.1,14.2-4.4,26-15.4,35.1c-5.6,4.6-11.9,7.3-19.2,7.6c-3.9,0.2-7.8,0.4-11.8,0.4
	c-68.4,0-136.9,0-205.3,0c-3.4,0-6.7-0.1-10.1-0.3c-21.1-1.4-36.3-17.6-36.4-39C0,207.6,0,124,0.1,40.4c0-23.5,16.4-40.1,39.7-40.1
	C112.1,0.1,184.5,0.5,256.9,0c25.2-0.2,41.5,20.1,41.3,40.8c-0.3,33.4,0,66.9,0,100.3C298.2,149.4,298.2,157.6,298.2,165.8
	L298.2,165.8z M226.8,97.3c-3.4-3.1-5.4-5.1-7.5-6.8c-29.1-23.7-71.2-26.2-102.1-4.9c-33,22.7-47.7,55.3-47,95.2
	c0.4,22.1,7.8,41.7,24.1,57c19.4,18.2,42.9,23.8,68.6,20.2c13.8-1.9,26.5-7.1,38-15.2c6-4.2,7.1-8.9,3.7-15.3
	c-4.3-8-10.3-10.2-18.9-6.8c-15.8,6.1-31.7,7.1-47.3-0.6c-12.7-6.3-19.5-16.6-19.2-31.2c0.3-15.5,5.9-28.6,16.8-39.5
	c5.1-5.1,11.1-8.8,18.3-9.5c6.9-0.7,12.3,2.7,17.4,8c11.9-8.8,23.5-17.1,34.8-25.9c5.1-4,9.7-8.6,13.9-13.5
	C223.1,105.4,224.5,101.4,226.8,97.3z"/>
</svg>
