<?xml version="1.0" encoding="utf-8"?>
<!-- Generator: Adobe Illustrator 24.1.2, SVG Export Plug-In . SVG Version: 6.00 Build 0)  -->
<svg version="1.1" id="Layer_1" xmlns="http://www.w3.org/2000/svg" xmlns:xlink="http://www.w3.org/1999/xlink" x="0px" y="0px"
	 viewBox="0 0 424.5 117.8" style="enable-background:new 0 0 424.5 117.8;" xml:space="preserve">
<style type="text/css">
	.st0{display:none;}
	.st1{display:inline;}
	.st2{fill:#FFFFFF;}
</style>
<g class="st0">
	<g class="st1">
		<path d="M0,117.8C0,78.5,0,39.3,0,0c141.5,0,283,0,424.5,0c0,39.3,0,78.5,0,117.8C283,117.8,141.5,117.8,0,117.8z M367.3,84.5
			c-1.1,6-4.5,9.6-9.6,10.9c-1.5,0.4-3,0.5-4.4,0.9c-2,0.6-2.9,1.8-3,3.8c-0.1,2.8,1.6,4.6,4.7,4.6c5.2,0,9.7-1.9,13.7-5.2
			c6-4.9,8.1-11.6,8.2-19c0.1-10,0.1-20,0-30c0-1.5-0.3-3-0.8-4.4c-1.3-2.9-4.5-3.4-6.8-1.3c-0.7,0.7-1.3,1.5-2.1,2.5
			c-5.1-2.9-10.4-4.5-16.2-3.6c-5.8,1-10.5,3.8-14.2,8.4c-5.7,7.3-6.1,17.8-1.1,25.7c2.5,3.9,5.9,6.8,10.1,8.6
			C353.1,89.6,360.1,88.4,367.3,84.5z M317.6,84.6c-0.9,5.8-4.3,9.5-9.4,10.8c-1.3,0.3-2.7,0.5-4,0.8c-2.4,0.6-3.9,2.4-3.7,4.5
			c0.2,2,2,3.9,4.3,4.1c1.2,0.1,2.5,0,3.7-0.2c11.1-1.8,18.8-11.7,18.6-22c-0.2-10.8,0-21.7,0-32.6c0-0.9,0-1.8-0.1-2.6
			c-0.6-3.4-4.2-4.7-6.9-2.6c-0.9,0.7-1.5,1.6-2,2.2c-4-1.1-7.6-2.4-11.3-3.1c-3.7-0.6-7.4,0.2-10.9,1.9c-3.6,1.7-6.5,4.1-8.9,7.3
			c-5.4,7.4-5.5,18.1-0.3,25.7c2.7,3.9,6.3,6.6,10.8,8.3C304.3,89.5,310.8,88.1,317.6,84.6z M14.4,57.7c0,2.9,0,5.8,0,8.6
			c0.1,11.2,8.7,20.7,19.8,21.9c11.1,1.3,21.8-5.8,24.6-16.5c0.5-1.9,0.9-3.9,0.9-5.9c0-2.5-1.9-4.4-4.2-4.5
			c-2.1-0.2-3.8,1.2-4.5,3.7c-0.2,0.8-0.4,1.7-0.5,2.6c-1,7.7-7.7,12-13.7,12c-7.1,0-13.3-5.9-13.6-13c-0.3-5.9-0.3-11.8,0-17.6
			c0.4-6.9,6.5-12.6,13.4-12.8c6.9-0.2,12.7,4.7,13.9,11.8c0.2,0.9,0.3,1.7,0.5,2.6c0.7,2.6,2.6,4.2,4.7,3.9c2.3-0.3,4.1-2.5,4-5.2
			c0-1.4-0.3-2.7-0.6-4.1c-2.2-11.1-12.8-19-24.3-17.9C22.5,28.5,14.2,39,14.4,49.4C14.4,52.2,14.4,54.9,14.4,57.7z M215.9,78.3
			c-0.1,0.3-0.3,0.6-0.4,0.9c-0.9,0.1-1.9,0.4-2.8,0.4c-4.4,0-8.7,0.1-13.1,0c-3.6,0-3.8-0.3-3.9-3.8c0-0.9,0-1.8,0-2.6
			c0-12.7,0-25.5,0-38.2c0-1.4,0-2.8-0.2-4.1c-0.4-2.3-2.3-3.7-4.6-3.6c-2.1,0.2-3.6,1.6-3.9,3.9c-0.1,0.9-0.1,1.7-0.1,2.6
			c0,16,0,31.9,0,47.9c0,0.9,0,1.8,0.1,2.6c0.3,2.3,1.5,3.6,3.8,3.9c0.7,0.1,1.5,0.1,2.2,0.1c11,0,22,0,32.9,0c0.8,0,1.5,0,2.2-0.1
			c3.4-0.6,4.9-3.8,3.1-6.8c-0.5-0.8-1.2-1.6-1.9-2.3c-5.1-5.1-10.2-10.3-15.4-15.4c-0.5-0.5-1.1-1.1-1.7-1.5
			c-2.2-1.6-4.4-1.4-6,0.4c-1.6,1.8-1.7,3.7,0,5.8c1.3,1.5,2.8,2.9,4.2,4.3C212.2,74.6,214,76.5,215.9,78.3z M137.3,61.7
			c0,0,0-0.1,0-0.1c-3.4,0-6.8,0.1-10.1,0c-2-0.1-3.6-1.2-4.2-3.2c-0.5-1.7-0.3-3.4,1.2-4.4c1.1-0.8,2.4-1.3,3.7-1.5
			c1.7-0.3,3.5-0.1,5.2-0.1c3.9,0,7.8,0.1,11.6-0.1c3.1-0.1,4.9-2.4,4.3-5.2c-0.4-2-1.8-3.3-4.3-3.3c-6.4-0.1-12.7,0-19.1,0
			c-0.6,0-1.2,0.2-1.8,0.3c-6.1,1.6-10.4,7.2-10,13.7c0.5,7.3,5.8,12.4,12.9,12.6c5.2,0.1,10.5,0,15.7,0.1c1.2,0,2.5,0.1,3.7,0.4
			c2,0.6,3.2,2.3,3.3,4.1c0,1.9-1.1,3.6-3.1,4.2c-1.3,0.4-2.7,0.5-4.1,0.5c-5,0.1-10,0-15,0.1c-2.9,0.1-4.7,1.9-4.6,4.4
			c0.1,2.3,1.8,4.1,4.4,4.2c6.5,0.1,13,0.3,19.5-0.1c6.6-0.5,12.1-6.5,11.6-14.1c-0.4-6.8-5.7-12.1-12.7-12.4
			C142.8,61.6,140,61.7,137.3,61.7z M277.4,65.7c-0.1-12.3-10-22-22.2-22c-12.7,0-22.4,10-22.3,22.4c0.1,12.8,10.1,22.2,22.5,22.3
			C265.9,88.4,277.8,79.4,277.4,65.7z M109.3,66.1c0-12.3-9.8-22.3-21.9-22.4c-12.6-0.1-22.8,9.9-22.7,22.4
			c0.1,12.2,10,22.1,22.2,22.2C99.3,88.4,109.3,78.5,109.3,66.1z M391.1,47.1c-0.2-0.3-0.4-0.6-0.7-0.8c-2.1-2.4-3.8-3-5.8-2.2
			c-2.3,1-2.8,3-2.8,5.2c0,0.1,0,0.3,0,0.4c0,10.8,0,21.7,0,32.5c0,1,0,2,0.3,3c0.5,1.9,2.2,3.1,4.2,3.1c2.1,0,3.8-1.4,4.2-3.6
			c0.2-1,0.1-2,0.1-3c0-5.1-0.1-10.2,0-15.3c0.2-7.3,4.5-12.2,11.5-13.6c1-0.2,2-0.3,3-0.5c2.1-0.5,3.4-2.2,3.3-4.4
			c0-2.1-1.5-3.9-3.6-4.1c-1.6-0.2-3.3-0.1-4.8,0.3C397.2,44.9,394.4,46,391.1,47.1z"/>
		<path class="st2" d="M367.3,84.5c-7.2,3.9-14.2,5.1-21.4,2c-4.3-1.8-7.7-4.7-10.1-8.6c-5-7.9-4.6-18.4,1.1-25.7
			c3.6-4.6,8.4-7.5,14.2-8.4c5.8-1,11.1,0.7,16.2,3.6c0.8-1,1.4-1.8,2.1-2.5c2.3-2.2,5.6-1.6,6.8,1.3c0.6,1.3,0.8,2.9,0.8,4.4
			c0.1,10,0.1,20,0,30c-0.1,7.4-2.2,14.1-8.2,19c-4,3.3-8.5,5.2-13.7,5.2c-3.1,0-4.8-1.8-4.7-4.6c0.1-2,1-3.3,3-3.8
			c1.4-0.4,3-0.5,4.4-0.9C362.8,94.2,366.2,90.5,367.3,84.5z M367.7,66.2c0.1-7.4-5.8-13.6-13-13.7c-7.2-0.1-13.4,5.9-13.6,13.2
			c-0.2,7.2,5.8,13.4,13.1,13.6C361.5,79.5,367.6,73.6,367.7,66.2z"/>
		<path class="st2" d="M317.6,84.6c-6.8,3.5-13.3,4.9-20.2,2.3c-4.5-1.7-8.1-4.4-10.8-8.3c-5.3-7.6-5.1-18.3,0.3-25.7
			c2.3-3.2,5.3-5.6,8.9-7.3c3.5-1.6,7.2-2.5,10.9-1.9c3.8,0.6,7.4,2,11.3,3.1c0.5-0.5,1.2-1.5,2-2.2c2.7-2.1,6.3-0.8,6.9,2.6
			c0.2,0.8,0.1,1.7,0.1,2.6c0,10.9-0.2,21.7,0,32.6c0.2,10.3-7.5,20.3-18.6,22c-1.2,0.2-2.5,0.3-3.7,0.2c-2.2-0.2-4.1-2.1-4.3-4.1
			c-0.2-2.1,1.3-3.9,3.7-4.5c1.3-0.3,2.7-0.5,4-0.8C313.3,94.1,316.7,90.4,317.6,84.6z M318.2,65.8c0-7.3-6.2-13.5-13.4-13.4
			c-7.2,0.1-13.3,6.3-13.2,13.6c0,7.4,6.1,13.4,13.4,13.3C312.3,79.2,318.2,73.2,318.2,65.8z"/>
		<path class="st2" d="M14.4,57.7c0-2.8,0-5.5,0-8.3c-0.2-10.4,8.1-21,20.4-22.1c11.5-1.1,22,6.8,24.3,17.9c0.3,1.3,0.6,2.7,0.6,4.1
			c0,2.6-1.8,4.8-4,5.2c-2,0.3-4-1.3-4.7-3.9c-0.2-0.8-0.3-1.7-0.5-2.6c-1.2-7.1-7-12-13.9-11.8c-6.9,0.2-13,5.9-13.4,12.8
			c-0.3,5.9-0.3,11.8,0,17.6c0.4,7.1,6.5,13,13.6,13c6,0,12.7-4.2,13.7-12c0.1-0.9,0.3-1.7,0.5-2.6c0.7-2.5,2.3-3.9,4.5-3.7
			c2.2,0.2,4.2,2.1,4.2,4.6c0,2-0.4,4-0.9,5.9C56,82.4,45.3,89.5,34.2,88.2c-11.1-1.3-19.6-10.7-19.8-21.9
			C14.4,63.4,14.4,60.5,14.4,57.7z"/>
		<path class="st2" d="M215.9,78.3c-1.8-1.8-3.6-3.7-5.4-5.5c-1.4-1.4-2.9-2.8-4.2-4.3c-1.7-2-1.6-4,0-5.8c1.6-1.8,3.8-2,6-0.4
			c0.6,0.4,1.1,1,1.7,1.5c5.1,5.1,10.3,10.2,15.4,15.4c0.7,0.7,1.4,1.4,1.9,2.3c1.8,2.9,0.3,6.2-3.1,6.8c-0.7,0.1-1.5,0.1-2.2,0.1
			c-11,0-22,0-32.9,0c-0.8,0-1.5,0-2.2-0.1c-2.3-0.3-3.5-1.6-3.8-3.9c-0.1-0.9-0.1-1.8-0.1-2.6c0-16,0-32,0-47.9
			c0-0.9,0-1.8,0.1-2.6c0.3-2.2,1.8-3.7,3.9-3.9c2.2-0.2,4.1,1.2,4.6,3.6c0.2,1.3,0.2,2.7,0.2,4.1c0,12.7,0,25.5,0,38.2
			c0,0.9,0,1.8,0,2.6c0.1,3.5,0.4,3.8,3.9,3.8c4.4,0.1,8.7,0,13.1,0c0.9,0,1.9-0.2,2.8-0.4C215.6,78.9,215.7,78.6,215.9,78.3z"/>
		<path class="st2" d="M137.3,61.7c2.8,0,5.5-0.1,8.2,0c6.9,0.3,12.2,5.6,12.7,12.4c0.5,7.6-5,13.6-11.6,14.1
			c-6.5,0.5-13,0.2-19.5,0.1c-2.7,0-4.4-1.9-4.4-4.2c-0.1-2.4,1.7-4.3,4.6-4.4c5-0.1,10,0,15-0.1c1.4,0,2.8-0.1,4.1-0.5
			c2-0.6,3.1-2.3,3.1-4.2c0-1.9-1.3-3.5-3.3-4.1c-1.2-0.3-2.5-0.4-3.7-0.4c-5.2-0.1-10.5,0.1-15.7-0.1c-7.1-0.2-12.4-5.3-12.9-12.6
			c-0.4-6.5,3.9-12.1,10-13.7c0.6-0.2,1.2-0.3,1.8-0.3c6.4,0,12.7-0.1,19.1,0c2.5,0,3.9,1.3,4.3,3.3c0.6,2.9-1.1,5.1-4.3,5.2
			c-3.9,0.1-7.7,0-11.6,0.1c-1.8,0-3.5-0.2-5.2,0.1c-1.3,0.2-2.7,0.7-3.7,1.5c-1.5,1-1.7,2.8-1.2,4.4c0.6,2,2.2,3.1,4.2,3.2
			C130.5,61.7,133.9,61.6,137.3,61.7C137.3,61.6,137.3,61.6,137.3,61.7z"/>
		<path class="st2" d="M277.4,65.7c0.4,13.7-11.4,22.7-22,22.7c-12.4-0.1-22.4-9.5-22.5-22.3c-0.1-12.5,9.6-22.4,22.3-22.5
			C267.4,43.7,277.3,53.4,277.4,65.7z M254.9,52.5c-7.2,0.1-13.2,6.4-13.1,13.7c0.1,8.2,6.9,13.3,13.4,13.3
			c7.3,0,13.6-6.6,13.4-13.8C268.4,58.5,262,52.4,254.9,52.5z"/>
		<path class="st2" d="M109.3,66.1c0,12.4-10,22.3-22.4,22.2c-12.2-0.1-22.1-10-22.2-22.2c-0.1-12.5,10.1-22.5,22.7-22.4
			C99.6,43.8,109.4,53.8,109.3,66.1z M100.6,66.2c0.1-7.2-6.3-13.7-13.6-13.7c-7,0-13.4,6.5-13.4,13.5c0,7.1,6.4,13.5,13.4,13.5
			C94.2,79.5,100.5,73.3,100.6,66.2z"/>
		<path class="st2" d="M391.1,47.1c3.3-1.1,6.1-2.2,8.9-3c1.5-0.4,3.2-0.5,4.8-0.3c2.2,0.2,3.6,2,3.6,4.1c0,2.2-1.2,3.8-3.3,4.4
			c-1,0.2-2,0.3-3,0.5c-7.1,1.5-11.3,6.4-11.5,13.6c-0.2,5.1,0,10.2,0,15.3c0,1,0,2-0.1,3c-0.3,2.1-2,3.5-4.2,3.6
			c-1.9,0-3.7-1.2-4.2-3.1c-0.3-0.9-0.3-2-0.3-3c0-10.8,0-21.7,0-32.5c0-0.1,0-0.3,0-0.4c0-2.3,0.5-4.3,2.8-5.2
			c2-0.8,3.6-0.2,5.8,2.2C390.7,46.5,390.9,46.8,391.1,47.1z"/>
		<path d="M367.7,66.2c-0.1,7.4-6.2,13.3-13.5,13.1c-7.3-0.2-13.3-6.4-13.1-13.6c0.2-7.2,6.4-13.3,13.6-13.2
			C361.9,52.6,367.8,58.9,367.7,66.2z"/>
		<path d="M318.2,65.8c0,7.4-5.8,13.4-13.2,13.5c-7.3,0.1-13.4-5.9-13.4-13.3c0-7.3,6-13.5,13.2-13.6
			C312,52.4,318.1,58.6,318.2,65.8z"/>
		<path d="M254.9,52.5c7.1-0.1,13.5,6,13.7,13.2c0.2,7.2-6,13.8-13.4,13.8c-6.5,0-13.3-5.1-13.4-13.3
			C241.8,58.9,247.8,52.6,254.9,52.5z"/>
		<path d="M100.6,66.2c-0.1,7.2-6.4,13.4-13.6,13.4c-7,0-13.4-6.4-13.4-13.5c0-7.1,6.4-13.5,13.4-13.5
			C94.3,52.4,100.7,58.9,100.6,66.2z"/>
	</g>
</g>
<g>
	<path d="M28.6,32.2c3.4,1,5.5,3,6.4,3.8c1.2,1.2,2.5,2.4,3.3,4.4c0.8,2,0.2,2.6,1,5.7c0.6,2.3,1,3.6,2.2,4.4c1.8,1.2,4,0.6,4.2,0.5
		c2.8-0.9,3.6-3.9,3.7-4.2c0.3-1,0.2-1.7-1.2-6.4c-1.1-3.8-1.7-5.7-2.2-6.7c-0.3-0.6-1.6-3-4.2-5.4c-2.4-2.3-4.8-3.4-6.9-4.4
		c-2.4-1.1-4.3-2.1-7.2-2.5c-4.1-0.6-7.4,0.3-9.6,1c-4.3,1.2-7.2,3.2-7.9,3.7c-3.1,2.2-5,4.6-5.4,5.2c-0.6,0.8-3,4.1-4.2,9.4
		c-0.3,1.4-0.4,4-0.5,9.4C0,53.3,0,55.7,0,60.7c0,2.5,0.1,3.7,0.2,5.4c0.2,2.1,0.4,3.9,1.2,6.2c1.1,3.2,2.8,5.3,3.7,6.4
		c0.8,1,2.8,3.3,6.2,5.4c3.7,2.3,7.2,3.1,9,3.5c4.2,0.7,7.6,0.2,8.6,0c4.4-0.8,7.4-2.7,9-3.7c1.8-1.1,4.4-2.8,6.7-5.9
		c1.6-2.2,2.3-4.1,3.7-7.9c1-2.6,1.3-4.2,1.2-5.9c0-1.4-0.1-3.3-1.5-4.4c-0.9-0.8-2-0.9-3-1c-0.9-0.1-2.5-0.2-3.7,0.7
		c-0.5,0.4-0.9,0.9-1.5,2.5c-1,2.6-1.1,3.6-1.8,5.5c-0.4,1.1-1,2.8-2.2,4.6c-0.7,1-1.7,2.5-3.5,3.7c-1.9,1.3-3.6,1.6-5.2,2
		C26,78,24.1,78.4,21.8,78c-1.9-0.3-3.3-1.1-4.1-1.5c-1.6-0.9-2.8-1.8-3.3-2.3c-0.6-0.6-2-1.8-3-3.7c-0.6-1.1-1.1-2.5-1.5-5.8
		C9.6,62,9.7,60.5,9.7,57c0-7.1-0.2-7.1,0-9.6c0.3-3.4,0.5-5.3,1.7-7.7c1.4-2.7,3.3-4.4,4.6-5.3c0.9-0.7,3.1-2.2,6.3-2.7
		C22.8,31.6,25.4,31.2,28.6,32.2z"/>
	<path d="M95,46c-6.2-5.7-13.5-6.4-16-6.4c-5.7-0.2-9.8,1.7-10.9,2.2c-1.2,0.6-4.3,2.2-7.2,5.3c-1.1,1.2-3,3.5-4.4,6.9
		c-0.4,0.9-1.6,3.9-1.9,7.9c-0.1,1.7-0.3,5.3,1.1,9.5c1.4,3.9,3.5,6.5,4.6,7.8c1.7,2,3.2,3.2,3.7,3.6c1.4,1.1,5.1,3.7,10.5,4.7
		c8.5,1.5,15.1-2.2,16.3-3c9.4-5.5,11.3-15.4,11.5-16.7C102.3,67.3,104.3,54.7,95,46z M90.6,71.8c-2.4,3.5-5.7,4.9-6.8,5.3
		c-1.1,0.4-5.7,2-10.9-0.1c-1-0.4-5.7-2.5-7.9-7.9c-1.7-4.2-0.8-7.9-0.4-9.5c0.2-0.8,2-6.3,7.7-9c0.8-0.4,3.5-1.6,7-1.4
		c3.9,0.2,6.7,1.9,8,3c1.1,0.8,4.7,3.6,5.7,8.8C94.1,66.3,91.5,70.5,90.6,71.8z"/>
	<path d="M133.9,39.5c-2.3,0.2-4.1,0.2-6,0.2c-2.3,0-4.1-0.1-7.2,0.1c-1.9,0.1-2.6,0.2-3.3,0.4c-2.2,0.6-3.8,1.7-4.4,2.2
		c-4.6,3.4-5.7,8.9-5.7,8.9c-0.9,4.7,0.9,8.3,1.5,9.4c0.5,1,2.3,4.3,6.1,6.2c2.4,1.2,4.9,1.5,5.9,1.6c0.3,0,1.5,0,4,0.1
		c1.7,0,3,0,4.8,0c2.4,0,3.5,0,4.8,0c2.9,0,3.2-0.1,4.6,0c2.2,0.1,3.3,0.2,4.4,0.9c0.3,0.2,1.9,1.2,2.2,3.2c0.3,1.5-0.2,2.9-1.1,4
		c-1,1.1-2.3,1.3-4,1.6c-1.4,0.2-1.8,0.1-4.6,0.1c-2.7,0-2.4,0.1-5.3,0.2c-1.6,0-1.9,0-5.2,0c0,0-1,0-3.2,0.1
		c-1.8,0.1-2,0.1-2.2,0.2c-0.3,0.1-2.2,0.7-3,2.6c-0.7,1.9,0.2,3.5,0.5,4.1c0.2,0.4,1.1,2.1,2.8,2.5c0.3,0.1,0.3,0,2.2,0
		c0.9,0,1.6,0,2.6,0c1.2,0,1.5,0,3.1,0.1c1.5,0,2.8,0.1,4.4,0.1c1.1,0,2,0,3.8,0c1.8,0,2.7,0,3.6-0.1c1.5-0.1,2.4-0.1,3.4-0.3
		c0.7-0.1,2.9-0.4,4.8-1.5c3.2-1.7,4.6-4.5,5.3-5.8c0.6-1.1,2-3.9,1.7-7.8c-0.3-4.9-3.1-8-4-8.9c-0.7-0.7-3-3-6.7-4
		c-1.9-0.5-3.9-0.5-5.2-0.6c-0.9,0-0.7,0-4,0c-1.3,0-2.3,0-4,0c-1.8,0-3,0-3.5,0c-8,0-3.4-0.1-5.3-0.1c-1.1,0-1.9,0-2.8-0.4
		c-0.9-0.4-1.5-1-1.7-1.2c-0.7-0.9-1-1.8-1.1-2.3c-0.1-0.4-0.3-1.5,0.2-2.7c0.7-1.6,2.1-2.2,3.1-2.6c1.2-0.5,2.3-0.6,3.6-0.7
		c0.9-0.1,1.2,0,3.2,0c0.6,0,1.6,0,3.7,0c4.3,0,3.6,0,5.1,0c1.7,0.1,4.4,0.2,6.4-0.4c0.2-0.1,0.6-0.2,1-0.5c0.3-0.2,1.3-0.8,1.8-1.9
		c0.4-1,0.3-1.8,0.2-2.5c-0.1-0.5-0.3-1.9-1.3-2.9c-0.7-0.7-1.6-1.1-3-1.3C138.4,39.1,136.6,39.4,133.9,39.5z"/>
	<path d="M234.6,82.4c-0.1-0.9-0.5-1.6-0.9-2.2c0,0-0.7-1.2-1.7-2l-18.3-18.3c-0.2-0.2-1.6-1.5-3.6-1.4c-1.7,0.1-2.8,1.1-3,1.4
		c-0.4,0.4-1.4,1.5-1.4,3.3c0,1.9,1.2,3.1,1.4,3.3l9.8,9.9h0c0.2,0.2,0.7,0.5,0.7,0.9c0,0.3-0.2,0.5-0.2,0.6
		c-0.3,0.3-0.7,0.3-1.1,0.3h-2l-16.8-0.1c-0.3-0.2-0.9-0.1-1.4-0.7c-0.2-0.3-0.3-0.6-0.4-1.4c-0.1-0.6-0.1-1.5-0.1-2.5l-0.3-47.5
		c0-0.3,0-1.9-1.4-3.1c-1.1-1-2.4-1-3-1c-0.4,0-2.2,0-3.6,1.5c-1.2,1.3-1.2,3-1.2,3.3l0.1,57.2c0.1,0.5,0.4,1.7,1.4,2.5
		c0.6,0.5,1.3,0.7,1.9,0.9c1.2,0.3,2.4,0.4,3.3,0.2l34.5,0.1c1.6,0.2,3.5-0.3,3.5-0.3c1.6-0.3,2.1-0.8,2.3-0.9
		c0.8-0.7,1.1-1.6,1.3-2.2C234.5,84,234.7,83.3,234.6,82.4z"/>
	<path d="M275.9,46c-6.2-5.7-13.5-6.4-16-6.4c-5.7-0.2-9.8,1.7-10.9,2.2c-1.2,0.6-4.3,2.2-7.2,5.3c-1.1,1.2-3,3.5-4.4,6.9
		c-0.4,0.9-1.6,3.9-1.9,7.9c-0.3,4.8,0.8,8.5,1.1,9.5c1.4,4.2,3.6,7,4.4,8c0.5,0.6,2,2.3,4.3,3.9c1.6,1.1,5.1,3.4,10,4.2
		c8.6,1.5,15.2-2.3,16.3-3c9.4-5.5,11.3-15.4,11.5-16.7C283.3,67.3,285.3,54.7,275.9,46z M271.5,71.7c-0.7,1-2.8,3.8-6.7,5.4
		c-5.3,2.1-9.9,0.3-10.9-0.1c-1-0.4-5.7-2.5-7.9-7.9c-1.7-4.2-0.8-7.9-0.4-9.5c0.2-0.8,1-3.1,3-5.4c1.9-2.2,4-3.3,4.6-3.6
		c1.1-0.5,3.7-1.6,7-1.4c0.8,0.1,4.5,0.4,8,3.2c1.3,1.1,4.4,3.9,5.3,8.7C274.7,66.7,272.1,70.9,271.5,71.7z"/>
	<g>
		<path d="M323.8,42.2C325.2,42.5,321.4,41.5,323.8,42.2L323.8,42.2z"/>
		<path d="M336.8,81.8c0-12.2,0-24.4,0-36.5c0-0.2,0.1-1-0.2-2c-0.1-0.3-0.2-0.8-0.6-1.4c-0.2-0.3-0.5-0.9-1.1-1.3
			c-0.5-0.4-1-0.6-1.2-0.7c-0.7-0.2-1.3-0.3-1.6-0.2c0,0-0.7,0-1.4,0.2c-1.2,0.4-2.1,1.3-2.7,2c-0.1,0.1-0.3,0.3-0.5,0.5
			c-0.2,0.2-0.4,0.4-0.5,0.5l0.6-0.6c-0.1,0.1-0.1,0.2-0.1,0.2l-0.4,0.5c0,0,0,0-0.1,0V43l0,0l0,0v0.1c-0.4-0.2-0.8-0.3-1.3-0.4
			c-0.9-0.2-1.5-0.4-2-0.5c0,0,0,0,0,0c-3.6-0.9-7.1-2.3-10.6-2.6c-5-0.5-9.1,1.4-10.9,2.2c-1.2,0.6-4.3,2.2-7.2,5.3
			c-1.1,1.2-3,3.5-4.4,6.9c-0.4,0.9-1.6,3.9-1.9,7.9c-0.1,1.7-0.3,5.3,1.1,9.5c1.4,3.9,3.5,6.5,4.6,7.8c1.7,2,3.2,3.2,3.7,3.6
			c4.6,3.6,9.5,4.5,10.5,4.7c6.1,1,10.9-0.7,13.7-1.7c1.2-0.5,2.7-1,4.3-2c0,0.2-0.1,0.6-0.2,1c0,0.2-0.2,1.1-0.7,2.3
			c-0.2,0.6-0.5,1.3-0.9,2.1c-0.3,0.5-0.8,1.4-1.8,2.5c-1,1.1-2,1.7-2.6,2.1c-1.4,0.9-2.7,1.3-3.2,1.5c-0.6,0.2-1.3,0.3-2.9,0.6
			c-1.6,0.3-2,0.3-2.8,0.6c-0.6,0.2-1.3,0.5-2.1,1.2c-0.4,0.4-1,0.9-1.3,1.8c-0.3,0.9-0.1,1.7,0,2.3c0.1,0.4,0.3,1.2,0.9,2
			c0.5,0.6,1.1,0.9,1.5,1.2c0.8,0.5,1.6,0.6,1.8,0.7c0.4,0.1,0.8,0.1,2.8-0.1c1.1-0.1,1.6-0.2,2.1-0.2c1.8-0.3,3.2-0.8,3.7-0.9
			c2.1-0.7,3.5-1.7,4.8-2.5c1.1-0.7,2.3-1.5,3.6-2.8c1.8-1.7,2.8-3.3,3.7-4.8c0.6-1,1.6-2.5,2.2-4.3
			C336.3,87.8,337.1,84.4,336.8,81.8z M318.1,77c-0.6,0.2-5.6,2-10.8-0.2c-0.8-0.3-2.5-1.1-4.2-2.8c-0.9-0.9-2.4-2.6-3.4-5
			c-1.8-4.4-0.8-8.4-0.5-9.4c0.2-0.8,1.9-6.2,7.4-9c3.2-1.6,6.2-1.6,7-1.5c4.2,0.2,7.1,2.3,7.9,3c1.1,0.9,4.3,3.6,5.3,8.3l-0.1,6.6
			c-0.4,1.5-1,3.1-2.1,4.7C322.5,75.2,319.3,76.6,318.1,77z"/>
	</g>
	<g>
		<path d="M377.6,42.2C378.9,42.5,375.2,41.5,377.6,42.2L377.6,42.2z"/>
		<path d="M390.5,81.8c0-12.2,0-24.4,0-36.5c0-0.2,0.1-1-0.2-2c-0.1-0.3-0.2-0.8-0.6-1.4c-0.2-0.3-0.5-0.9-1.1-1.3
			c-0.5-0.4-1-0.6-1.2-0.7c-0.7-0.2-1.3-0.3-1.6-0.2c0,0-0.7,0-1.4,0.2c-1.2,0.4-2.1,1.3-2.7,2c-0.1,0.1-0.3,0.3-0.5,0.5
			c-0.2,0.2-0.4,0.4-0.5,0.5l0.6-0.6c-0.1,0.1-0.1,0.2-0.1,0.2l-0.4,0.5c0,0,0,0-0.1,0V43l0,0l0,0v0.1c-0.4-0.2-0.8-0.3-1.3-0.4
			c-0.9-0.2-1.5-0.4-2-0.5c0,0,0,0,0,0c-3.6-0.9-7.1-2.3-10.6-2.6c-5-0.5-9.1,1.4-10.9,2.2c-1.2,0.6-4.3,2.2-7.2,5.3
			c-1.1,1.2-3,3.5-4.4,6.9c-0.4,0.9-1.6,3.9-1.9,7.9c-0.1,1.7-0.3,5.3,1.1,9.5c1.4,3.9,3.5,6.5,4.6,7.8c1.7,2,3.2,3.2,3.7,3.6
			c4.6,3.6,9.5,4.5,10.5,4.7c6.1,1,10.9-0.7,13.7-1.7c1.2-0.5,2.7-1,4.3-2c0,0.2-0.1,0.6-0.2,1c0,0.2-0.2,1.1-0.7,2.3
			c-0.2,0.6-0.5,1.3-0.9,2.1c-0.3,0.5-0.8,1.4-1.8,2.5c-1,1.1-2,1.7-2.6,2.1c-1.4,0.9-2.7,1.3-3.2,1.5c-0.6,0.2-1.3,0.3-2.9,0.6
			c-1.6,0.3-2,0.3-2.8,0.6c-0.6,0.2-1.3,0.5-2.1,1.2c-0.4,0.4-1,0.9-1.3,1.8c-0.3,0.9-0.1,1.7,0,2.3c0.1,0.4,0.3,1.2,0.9,2
			c0.5,0.6,1.1,0.9,1.5,1.2c0.8,0.5,1.6,0.6,1.8,0.7c0.4,0.1,0.8,0.1,2.8-0.1c1.1-0.1,1.6-0.2,2.1-0.2c1.8-0.3,3.2-0.8,3.7-0.9
			c2.1-0.7,3.5-1.7,4.8-2.5c1.1-0.7,2.3-1.5,3.6-2.8c1.8-1.7,2.8-3.3,3.7-4.8c0.6-1,1.6-2.5,2.2-4.3C390,87.8,390.8,84.4,390.5,81.8
			z M371.9,77c-0.6,0.2-5.6,2-10.8-0.2c-0.8-0.3-2.5-1.1-4.2-2.8c-0.9-0.9-2.4-2.6-3.4-5c-1.8-4.4-0.8-8.4-0.5-9.4
			c0.2-0.8,1.9-6.2,7.4-9c3.2-1.6,6.2-1.6,7-1.5c4.2,0.2,7.1,2.3,7.9,3c1.1,0.9,4.3,3.6,5.3,8.3l-0.1,6.6c-0.4,1.5-1,3.1-2.1,4.7
			C376.2,75.2,373,76.6,371.9,77z"/>
	</g>
	<path d="M424.3,42.9c-0.3-0.9-0.8-1.5-1-1.7c-0.5-0.6-1.1-0.9-1.3-1c-0.6-0.3-1.2-0.4-1.8-0.5c-1.9-0.2-3.5,0.1-3.8,0.2
		c-1.6,0.3-2.8,0.6-4.2,1.1c-1.6,0.5-1.4,0.5-4.1,1.4c-0.6,0.2-1.5,0.5-2.5,0.8c-0.6-0.8-1-1.2-1.1-1.4c-0.4-0.4-0.9-0.9-1.7-1.4
		c-0.5-0.3-1-0.6-1.6-0.7c-0.1,0-0.6-0.1-1.3,0c-0.6,0.1-1.1,0.3-1.5,0.5c-0.4,0.2-0.8,0.4-1.2,0.8c-0.4,0.4-0.7,0.9-0.8,1.2
		c-0.3,0.5-0.3,0.9-0.5,1.4c-0.1,0.3,0,0.1-0.2,1.2c0,0.2-0.1,0.5,0,0.7c0,0,0,0,0,0c0,0,0,0,0,0c0,12.1,0,24.2,0,36.2
		c0,0.9,0.2,1.7,0.3,2.2c0.2,0.9,0.4,1.3,0.5,1.5c0.3,0.5,0.6,0.9,0.9,1c0.8,0.7,1.6,0.9,2,0.9c0.2,0,1,0.2,2,0
		c0.5-0.1,1.4-0.3,2.3-1c0.7-0.7,1-1.4,1.2-1.9c0.5-1.3,0.4-2.5,0.3-3.1V67.6c0.1,0,0-0.5,0-1.4v-0.9c0-0.7,0.1-1.5,0.2-2.6
		c0.3-2.5,0.9-3.9,1-4.4c0.6-1.6,1.4-2.7,1.7-3.1c0.9-1.2,1.8-2,2-2.2c1-0.9,1.9-1.4,2.7-1.8c1.4-0.8,2.5-1.2,2.8-1.2
		c1.3-0.4,2.4-0.6,3.1-0.7c1.7-0.3,2-0.2,2.9-0.5c0.5-0.2,1.3-0.6,1.9-1.5c0.5-0.7,0.7-1.5,0.7-1.9C424.5,44.8,424.6,44,424.3,42.9z
		"/>
</g>
</svg>
